<svg width="16" height="16" viewBox="0 0 16 16" fill="none" xmlns="http://www.w3.org/2000/svg">
<g clip-path="url(#clip0_171_13)">
<path d="M10.2542 5.30765C10.4589 5.12311 11.7141 3.91237 12.4206 3.22767C12.4173 3.23112 12.4139 3.23457 12.4089 3.23974C12.4122 3.23629 12.4173 3.23112 12.4206 3.22767C12.4206 3.22767 12.424 3.22422 12.4256 3.22422C12.5565 3.09832 12.5498 3.10177 12.4626 3.188C12.9727 2.67922 13.4879 2.17043 13.9712 1.63405C14.2799 1.34258 14.5048 0.935549 14.8572 0.702715C15.5738 0.266367 16.3507 1.21322 15.8305 1.88068C14.3588 3.64332 11.3265 6.44423 10.4673 7.54976C10.4287 7.61702 10.3985 7.69118 10.3717 7.76534C10.37 7.77742 10.3666 7.78949 10.3649 7.80156C10.4522 8.40003 10.3649 8.11028 10.5831 8.62424C11.209 9.49694 11.8266 9.96605 12.8301 11.0716C13.2278 11.4717 14.0635 12.4065 14.8035 13.1809C15.0368 13.4258 15.2717 13.669 15.51 13.9087C15.5318 13.9294 15.5519 13.9501 15.5704 13.9691C15.6224 14.0156 15.6677 14.0691 15.6963 14.1346C15.7416 14.2036 15.7667 14.2795 15.7751 14.364C15.8221 14.7021 15.5654 15.0401 15.2348 15.0763C14.8404 15.1212 14.5786 14.7624 14.2799 14.5589C13.6087 14.0294 12.9459 13.4896 12.2914 12.9377C11.5463 12.284 10.8197 11.6045 10.1199 10.8974C9.48897 10.2558 8.81774 9.56593 8.66839 8.62769C8.29081 7.08064 9.23223 6.24071 10.2542 5.30593V5.30765Z" fill="black"/>
<path d="M12.4206 3.22694C12.4357 3.21142 12.4492 3.19762 12.4626 3.18555L12.4223 3.22694H12.4206Z" fill="black"/>
<path d="M2.92425 5.19818C3.85056 4.48071 4.77519 3.75978 5.69647 3.03369C6.60767 2.31966 7.5172 1.60391 8.43009 0.891614C8.7355 0.653606 9.04091 0.415598 9.34633 0.17759C9.43695 0.103429 9.53931 0.0551371 9.65174 0.0361654C10.5697 -0.231162 11.1604 1.05201 10.3935 1.63496C8.57608 3.05093 6.75703 4.46518 4.94971 5.89496C4.35231 6.38649 3.7247 6.84526 3.15247 7.36957C3.09877 7.42821 3.04843 7.48857 2.99976 7.55066C3.02158 7.6093 3.04675 7.66622 3.0736 7.72141C3.09206 7.75073 3.1122 7.7835 3.13905 7.82317C4.09892 9.18223 5.19975 10.4344 6.19822 11.7641C6.76709 12.4988 7.31751 13.2473 7.8931 13.9752C8.10621 14.2442 8.30759 14.5219 8.51903 14.7927C8.60964 14.9168 8.73047 15.0324 8.75228 15.1928C8.94359 15.8758 8.02231 16.3069 7.62628 15.7257C6.53887 14.7685 5.35246 13.4836 3.82203 11.6848C3.3035 11.0656 2.79336 10.4413 2.29496 9.80484C1.92578 9.33745 1.55325 8.85798 1.31328 8.30436C0.697416 6.86079 1.91907 5.9536 2.92425 5.19645V5.19818Z" fill="black"/>
</g>
<defs>
<clipPath id="clip0_171_13">
<rect width="16" height="16" fill="white" transform="matrix(-1 0 0 1 16 0)"/>
</clipPath>
</defs>
</svg>
