<svg width="27" height="31" viewBox="0 0 27 31" fill="none" xmlns="http://www.w3.org/2000/svg">
<path fill-rule="evenodd" clip-rule="evenodd" d="M5.25 21.5H19.5C22.329 21.5 23.742 21.5 24.621 20.621C25.5 19.742 25.5 18.329 25.5 15.5V8C25.5 5.171 25.5 3.758 24.621 2.879C23.742 2 22.329 2 19.5 2H7.5C4.671 2 3.258 2 2.379 2.879C1.5 3.758 1.5 5.171 1.5 8V25.25C1.5 24.2554 1.89509 23.3016 2.59835 22.5983C3.30161 21.8951 4.25544 21.5 5.25 21.5ZM9 6.5C8.20435 6.5 7.44129 6.81607 6.87868 7.37868C6.31607 7.94129 6 8.70435 6 9.5C6 10.2956 6.31607 11.0587 6.87868 11.6213C7.44129 12.1839 8.20435 12.5 9 12.5H18C18.7956 12.5 19.5587 12.1839 20.1213 11.6213C20.6839 11.0587 21 10.2956 21 9.5C21 8.70435 20.6839 7.94129 20.1213 7.37868C19.5587 6.81607 18.7956 6.5 18 6.5H9Z" fill="#E06126"/>
<path d="M19.5 20H5.25001V23H19.5V20ZM23.5605 19.5605C23.4465 19.6745 23.2425 19.8155 22.5915 19.904C21.8985 19.997 20.9565 20 19.5 20V23C20.8725 23 22.0515 23.003 22.992 22.877C23.9745 22.745 24.918 22.4465 25.6815 21.6815L23.5605 19.5605ZM24 15.5C24 16.9565 23.997 17.8985 23.904 18.5915C23.8155 19.2425 23.6745 19.4465 23.5605 19.5605L25.6815 21.6815C26.4465 20.9165 26.745 19.9745 26.877 18.992C27.003 18.05 27 16.8725 27 15.5H24ZM24 8.00001V15.5H27V8.00001H24ZM23.5605 3.93951C23.6745 4.05351 23.8155 4.25751 23.904 4.90851C23.997 5.60001 24 6.54351 24 8.00001H27C27 6.62751 27.003 5.44851 26.877 4.50801C26.745 3.52551 26.4465 2.58201 25.6815 1.81851L23.5605 3.93951ZM19.5 3.50001C20.9565 3.50001 21.8985 3.50301 22.5915 3.59601C23.2425 3.68451 23.4465 3.82551 23.5605 3.93951L25.6815 1.81851C24.9165 1.05351 23.9745 0.755006 22.992 0.623006C22.05 0.497006 20.8725 0.500006 19.5 0.500006V3.50001ZM7.50001 3.50001H19.5V0.500006H7.50001V3.50001ZM3.43951 3.93951C3.55351 3.82551 3.75751 3.68451 4.40851 3.59601C5.10001 3.50301 6.04351 3.50001 7.50001 3.50001V0.500006C6.12751 0.500006 4.94851 0.497006 4.00801 0.623006C3.02551 0.755006 2.08201 1.05351 1.31851 1.81851L3.43951 3.93951ZM3.00001 8.00001C3.00001 6.54351 3.00301 5.60151 3.09601 4.90851C3.18451 4.25751 3.32551 4.05351 3.43951 3.93951L1.31851 1.81851C0.553506 2.58351 0.255006 3.52551 0.123006 4.50801C-0.00299377 5.45001 6.19818e-06 6.62751 6.19818e-06 8.00001H3.00001ZM3.00001 25.25V8.00001H6.19818e-06V25.25H3.00001ZM5.25001 20C3.85762 20 2.52226 20.5531 1.5377 21.5377C0.55313 22.5223 6.19818e-06 23.8576 6.19818e-06 25.25H3.00001C3.00001 24.6533 3.23706 24.081 3.65902 23.659C4.08097 23.2371 4.65327 23 5.25001 23V20ZM7.50001 9.50001C7.50001 9.10218 7.65804 8.72065 7.93935 8.43935C8.22065 8.15804 8.60218 8.00001 9.00001 8.00001V5.00001C7.80653 5.00001 6.66194 5.47411 5.81803 6.31803C4.97411 7.16194 4.50001 8.30653 4.50001 9.50001H7.50001ZM9.00001 11C8.60218 11 8.22065 10.842 7.93935 10.5607C7.65804 10.2794 7.50001 9.89783 7.50001 9.50001H4.50001C4.50001 10.6935 4.97411 11.8381 5.81803 12.682C6.66194 13.5259 7.80653 14 9.00001 14V11ZM18 11H9.00001V14H18V11ZM19.5 9.50001C19.5 9.89783 19.342 10.2794 19.0607 10.5607C18.7794 10.842 18.3978 11 18 11V14C19.1935 14 20.3381 13.5259 21.182 12.682C22.0259 11.8381 22.5 10.6935 22.5 9.50001H19.5ZM18 8.00001C18.3978 8.00001 18.7794 8.15804 19.0607 8.43935C19.342 8.72065 19.5 9.10218 19.5 9.50001H22.5C22.5 8.30653 22.0259 7.16194 21.182 6.31803C20.3381 5.47411 19.1935 5.00001 18 5.00001V8.00001ZM9.00001 8.00001H18V5.00001H9.00001V8.00001ZM12 27.5H5.25001V30.5H12V27.5ZM6.19818e-06 25.25C6.19818e-06 26.6424 0.55313 27.9777 1.5377 28.9623C2.52226 29.9469 3.85762 30.5 5.25001 30.5V27.5C4.65327 27.5 4.08097 27.2629 3.65902 26.841C3.23706 26.419 3.00001 25.8467 3.00001 25.25H6.19818e-06Z" fill="#E06126"/>
<path d="M25.5 29H10.5H25.5Z" fill="#E06126"/>
<path d="M25.5 29H10.5" stroke="#E06126" stroke-width="3" stroke-linecap="round"/>
</svg>
