<svg width="24" height="24" viewBox="0 0 24 24" fill="none" xmlns="http://www.w3.org/2000/svg">
<path fill-rule="evenodd" clip-rule="evenodd" d="M12.0001 18.5007L7.32805 20.9567C7.1629 21.0436 6.97676 21.0825 6.79066 21.069C6.60456 21.0556 6.42594 20.9903 6.27498 20.8807C6.12402 20.771 6.00675 20.6213 5.93643 20.4485C5.86611 20.2757 5.84554 20.0866 5.87705 19.9027L6.76905 14.7007L2.98905 11.0157C2.85533 10.8855 2.76075 10.7203 2.71602 10.5391C2.67129 10.3578 2.67819 10.1677 2.73595 9.99012C2.7937 9.81258 2.90001 9.65476 3.04282 9.53451C3.18564 9.41427 3.35927 9.3364 3.54405 9.30974L8.76705 8.55074L11.1031 3.81773C11.1856 3.65027 11.3133 3.50925 11.4719 3.41064C11.6304 3.31203 11.8134 3.25977 12.0001 3.25977C12.1867 3.25977 12.3697 3.31203 12.5282 3.41064C12.6868 3.50925 12.8145 3.65027 12.8971 3.81773L15.2331 8.55074L20.456 9.31074C20.6406 9.33754 20.814 9.41544 20.9567 9.53562C21.0993 9.6558 21.2055 9.81347 21.2632 9.99082C21.3209 10.1682 21.3279 10.3581 21.2834 10.5393C21.2388 10.7204 21.1445 10.8854 21.011 11.0157L17.2301 14.7007L18.1221 19.9027C18.1534 20.0865 18.1328 20.2754 18.0625 20.4481C17.9922 20.6207 17.8751 20.7703 17.7243 20.8799C17.5735 20.9895 17.3951 21.0548 17.2091 21.0684C17.0232 21.082 16.8372 21.0433 16.6721 20.9567L12.0001 18.5007Z" fill="#F9C300"/>
</svg>
